<?xml version="1.0" encoding="UTF-8" standalone="no"?>
<svg id="Layer_1" xmlns:rdf="http://www.w3.org/1999/02/22-rdf-syntax-ns#" xmlns="http://www.w3.org/2000/svg" enable-background="new 0 0 512 512" xml:space="preserve" height="40" viewBox="0 0 40 40" width="40" version="1.1" y="0px" x="0px" xmlns:cc="http://creativecommons.org/ns#" xmlns:dc="http://purl.org/dc/elements/1.1/"><metadata id="metadata9"><rdf:RDF><cc:Work rdf:about=""><dc:format>image/svg+xml</dc:format><dc:type rdf:resource="http://purl.org/dc/dcmitype/StillImage"/><dc:title/></cc:Work></rdf:RDF></metadata><g id="XMLID_496_" fill="#fff" transform="matrix(.071045 0 0 .071045 1.3429 2.1497)"><path id="XMLID_497_" fill="#fff" d="m9.044 246.86 117.98 44.032 45.664 146.85c2.922 9.405 14.423 12.882 22.057 6.641l65.761-53.61c6.893-5.617 16.712-5.897 23.915-0.667l118.61 86.113c8.166 5.936 19.736 1.461 21.784-8.407l86.89-417.93c2.236-10.779-8.356-19.772-18.62-15.802l-484.18 186.78c-11.948 4.608-11.844 21.525 0.139 26.015zm156.28 20.59 230.57-142c4.144-2.545 8.407 3.058 4.849 6.359l-190.29 176.87c-6.688 6.226-11.003 14.558-12.225 23.602l-6.482 48.036c-0.858 6.414-9.868 7.05-11.638 0.843l-24.92-87.59c-2.855-9.991 1.306-20.663 10.143-26.118zm-85.253-297.71h365.08c54.829 0 98.969 44.14 98.969 98.969v365.09c0 54.829-44.14 98.969-98.969 98.969h-365.08c-54.829 0-98.969-44.14-98.969-98.969v-365.09c0-54.829 44.14-98.969 98.969-98.969z"/></g></svg>
