<?xml version="1.0" encoding="UTF-8" standalone="no"?>
<svg id="Layer_1" xmlns:rdf="http://www.w3.org/1999/02/22-rdf-syntax-ns#" xmlns="http://www.w3.org/2000/svg" enable-background="new 0 0 512 512" xml:space="preserve" height="40" viewBox="0 0 40 40" width="40" version="1.1" y="0px" x="0px" xmlns:cc="http://creativecommons.org/ns#" xmlns:dc="http://purl.org/dc/elements/1.1/"><metadata id="metadata15"><rdf:RDF><cc:Work rdf:about=""><dc:format>image/svg+xml</dc:format><dc:type rdf:resource="http://purl.org/dc/dcmitype/StillImage"/><dc:title/></cc:Work></rdf:RDF></metadata><path id="path8" stroke-width=".097088" fill="#fff" d="m33.849 0h-27.2c-3.5352 0-6.649 2.5682-6.649 6.1029v27.2c0 3.535 3.1138 6.697 6.6486 6.697h16.841c-0.03155-5.2427 0.0075-11.081-0.01796-16.154-1.0742-0.0109-2.1493-0.0664-3.2235-0.0829 0.004-1.7929 0.0017-3.623 0.0023-5.4156 1.0735-0.0133 2.1477-0.0158 3.2212-0.026 0.03282-1.7434-0.03281-3.4976 0.03437-5.2394 0.10709-1.3791 0.63291-2.7731 1.6641-3.7259 1.2484-1.1882 3.0235-1.5919 4.6978-1.6419 1.7702-0.0158 3.5406-0.007 5.3117-0.007 0.007 1.868 0.007 3.7361-0.000781 5.6041-1.1446-0.002-2.2898 0.002-3.4344-0.002-0.72505-0.0453-1.4704 0.50466-1.6023 1.2242-0.01718 1.25-0.0062 2.5007-0.0055 3.7503 1.6782 0.007 3.357-0.002 5.0352 0.004-0.12272 1.8086-0.34767 3.6085-0.6102 5.4016-1.4827 0.0133-2.9664 0.14699-4.4484 0.15553-0.01253 5.0715 0.0039 10.912-0.009 16.155h3.7441c3.534 0 6.151-3.162 6.151-6.697v-27.2c0-3.5348-2.617-6.103-6.151-6.103z"/></svg>
