<?xml version="1.0" encoding="UTF-8" standalone="no"?>
<svg id="Layer_1" xmlns:rdf="http://www.w3.org/1999/02/22-rdf-syntax-ns#" xmlns="http://www.w3.org/2000/svg" enable-background="new 0 0 175.3 174.6" xml:space="preserve" viewBox="0 0 40 39.999998" height="40" width="40" version="1.1" y="0px" x="0px" xmlns:cc="http://creativecommons.org/ns#" xmlns:dc="http://purl.org/dc/elements/1.1/"><metadata id="metadata36"><rdf:RDF><cc:Work rdf:about=""><dc:format>image/svg+xml</dc:format><dc:type rdf:resource="http://purl.org/dc/dcmitype/StillImage"/><dc:title/></cc:Work></rdf:RDF></metadata><rect id="rect2" height="3440.6" width="11069" y="1455.7" x="-7262.2" fill="none"/>
<path id="PLUS" stroke-width=".24096" fill="#fff" d="m7.0316 0c-3.569 0-6.4984 2.6103-6.9648 6.0179 0.05694-0.0551 0.11334-0.1091 0.17094-0.1673 1.7022-1.4289 3.5001-2.3492 5.3461-2.7851 1.8459-0.3633 3.548-0.557 5.1542-0.557h12.107l-3.7398 2.204h-3.692c0.3596 0.24219 0.79132 0.58116 1.2708 1.0413 0.4555 0.48438 0.91096 1.0657 1.3425 1.768 0.40755 0.65392 0.79094 1.4289 1.1026 2.325 0.28768 0.89611 0.40777 1.9375 0.40777 3.1243-0.04795 2.1797-0.52769 3.9236-1.4387 5.2315-0.4555 0.65392-0.93493 1.2352-1.4384 1.768-0.55139 0.53282-1.1505 1.09-1.7738 1.647-0.3596 0.38751-0.69536 0.79927-1.007 1.2837-0.38358 0.48439-0.55145 1.0654-0.55145 1.7193 0 0.6297 0.19185 1.1627 0.55145 1.5744 0.31166 0.38751 0.62344 0.75069 0.91112 1.0413l2.0376 1.6954c1.2706 1.0656 2.3973 2.2282 3.3562 3.4876 0.91099 1.2836 1.3905 2.9789 1.4145 5.0617 0 0.8719-0.11971 1.7197-0.33547 2.5189h11.705c3.896 0.001 7.032-3.108 7.032-6.97v-26.058c0-3.8618-3.136-6.971-7.032-6.971zm22.31 2.4564h3.0688v6.3938h6.3288v3.1001h-6.3288v6.4183h-3.069v-6.418h-6.353v-3.0998h6.3527zm-22.344 2.1106c-1.6302 0.0484-2.9968 0.7267-4.0756 2.0103-0.911 1.3563-1.3665 2.8578-1.3186 4.5287 0 2.2282 0.64724 4.505 1.9178 6.9027 0.62331 1.1141 1.4144 2.0585 2.3973 2.8336 0.98291 0.77502 2.1099 1.1626 3.3565 1.1626 1.6062-0.0727 2.9248-0.62975 3.9797-1.7196 0.50344-0.79924 0.83897-1.5744 0.98281-2.3979 0.07192-0.82346 0.11979-1.5014 0.11979-2.0585 0-2.4219-0.59929-4.8441-1.8219-7.2902-0.575-1.1624-1.319-2.131-2.254-2.8576-0.9585-0.7024-2.0371-1.0658-3.2837-1.1142zm-6.9983 16.854v10.478c1.3751-0.6295 2.8107-1.0712 4.2891-1.3201 2.1336-0.31485 3.9077-0.48433 5.3221-0.53277-0.43152-0.58126-0.81507-1.2112-1.1507-1.8651-0.40755-0.62971-0.59925-1.4047-0.59925-2.3008 0-0.55705 0.071838-0.99298 0.21568-1.3563 0.11987-0.36329 0.2398-0.72648 0.35967-1.0413-0.69523 0.0727-1.3424 0.12101-1.9417 0.12101-2.6991-0.023-4.8707-0.771-6.4949-2.183zm9.5515 10.302c-0.41354-0.001-1.0969 0.0489-2.0499 0.1397-1.2466 0.193-2.5411 0.46-3.8357 0.871-0.3116 0.121-0.7433 0.291-1.2946 0.533-0.5514 0.266-1.1268 0.63-1.7022 1.114-0.1505 0.142-0.29492 0.293-0.43351 0.447 0.79641 2.984 3.5285 5.172 6.796 5.172h10.682v-0.12101c0-1.55-0.50318-2.8821-1.5101-4.0446-1.0548-1.0899-2.7093-2.4219-4.9628-4.0204-0.40755-0.0484-0.83896-0.0729-1.3664-0.0729-0.077915-0.0121-0.18567-0.018-0.32352-0.0184z"/></svg>
