<?xml version="1.0" encoding="UTF-8" standalone="no"?>
<svg id="Capa_1" xmlns:rdf="http://www.w3.org/1999/02/22-rdf-syntax-ns#" xmlns="http://www.w3.org/2000/svg" xml:space="preserve" height="40" viewBox="0 0 40 40" width="40" version="1.1" y="0px" x="0px" xmlns:cc="http://creativecommons.org/ns#" xmlns:dc="http://purl.org/dc/elements/1.1/"><metadata id="metadata42"><rdf:RDF><cc:Work rdf:about=""><dc:format>image/svg+xml</dc:format><dc:type rdf:resource="http://purl.org/dc/dcmitype/StillImage"/><dc:title/></cc:Work></rdf:RDF></metadata><g id="g5" fill="#fff" transform="scale(.078431)"><g id="post-instagram" fill="#fff"><path id="path2" fill="#fff" d="m459 0h-408c-28.05 0-51 22.95-51 51v408c0 28.05 22.95 51 51 51h408c28.05 0 51-22.95 51-51v-408c0-28.05-22.95-51-51-51zm-204 153c56.1 0 102 45.9 102 102s-45.9 102-102 102-102-45.9-102-102 45.9-102 102-102zm-191.25 306c-7.65 0-12.75-5.1-12.75-12.75v-216.75h53.55c-2.55 7.65-2.55 17.85-2.55 25.5 0 84.15 68.85 153 153 153s153-68.85 153-153c0-7.65 0-17.85-2.55-25.5h53.55v216.75c0 7.65-5.1 12.75-12.75 12.75zm395.25-344.25c0 7.65-5.1 12.75-12.75 12.75h-51c-7.65 0-12.75-5.1-12.75-12.75v-51c0-7.65 5.1-12.75 12.75-12.75h51c7.65 0 12.75 5.1 12.75 12.75z"/></g></g></svg>
