<?xml version="1.0" encoding="UTF-8" standalone="no"?>
<svg
   xmlns:dc="http://purl.org/dc/elements/1.1/"
   xmlns:cc="http://creativecommons.org/ns#"
   xmlns:rdf="http://www.w3.org/1999/02/22-rdf-syntax-ns#"
   xmlns:svg="http://www.w3.org/2000/svg"
   xmlns="http://www.w3.org/2000/svg"
   xmlns:sodipodi="http://sodipodi.sourceforge.net/DTD/sodipodi-0.dtd"
   xmlns:inkscape="http://www.inkscape.org/namespaces/inkscape"
   id="Layer_1"
   enable-background="new 0 0 512 512"
   xml:space="preserve"
   height="40"
   viewBox="0 0 40 40"
   width="40"
   version="1.1"
   y="0px"
   x="0px"
   sodipodi:docname="linkedin.svg"
   inkscape:version="0.92.3 (2405546, 2018-03-11)"><defs
     id="defs8" /><sodipodi:namedview
     pagecolor="#ffffff"
     bordercolor="#666666"
     borderopacity="1"
     objecttolerance="10"
     gridtolerance="10"
     guidetolerance="10"
     inkscape:pageopacity="0"
     inkscape:pageshadow="2"
     inkscape:window-width="1609"
     inkscape:window-height="1085"
     id="namedview6"
     showgrid="false"
     inkscape:zoom="5.9"
     inkscape:cx="-22.113956"
     inkscape:cy="24.25971"
     inkscape:window-x="0"
     inkscape:window-y="1150"
     inkscape:window-maximized="0"
     inkscape:current-layer="Layer_1" /><metadata
     id="metadata9"><rdf:RDF><cc:Work
         rdf:about=""><dc:format>image/svg+xml</dc:format><dc:type
           rdf:resource="http://purl.org/dc/dcmitype/StillImage" /><dc:title /></cc:Work></rdf:RDF></metadata><g
     id="XMLID_496_"
     transform="matrix(.071045 0 0 .071045 1.3429 2.1497)"
     style="fill:#000000"
     fill="#fff" /><path
     id="path53"
     style="fill:#ffffff;stroke-width:0.13670672"
     d="M 11.053757,24.220543 V 13.284007 H 7.6360902 4.2184212 v 10.936536 10.936538 h 3.417669 3.4176668 z m 10.825026,3.998671 c 0.042,-6.751128 0.05102,-6.954874 0.335346,-7.569779 0.686549,-1.484803 1.92198,-2.341781 3.374826,-2.341009 1.950186,0.0011 2.993373,1.03131 3.365304,3.323654 0.0843,0.519551 0.143135,3.467843 0.143761,7.202314 l 10e-4,6.322687 h 3.417669 3.417666 l -0.0024,-6.5961 c -0.0029,-8.448513 -0.126049,-9.662915 -1.201335,-11.859308 -0.949893,-1.940269 -2.718278,-3.302119 -4.879745,-3.757941 -3.118634,-0.657674 -6.211556,0.383337 -8.115832,2.731612 -0.486815,0.600322 -0.49813,0.605623 -0.586596,0.274842 -0.04962,-0.185509 -0.133845,-0.861289 -0.187201,-1.501734 l -0.097,-1.164445 h -3.006897 -3.006893 l 0.0844,0.444295 c 0.04641,0.244364 0.1238,5.165805 0.17196,10.936538 l 0.08758,10.492241 h 3.320592 3.320589 z M 8.7344622,10.414111 C 10.25837,9.9907531 11.216266,8.7247311 11.208705,7.1439781 c -0.005,-1.043078 -0.346729,-1.836821 -1.072123,-2.490172 -0.7125668,-0.641797 -1.3859798,-0.866477 -2.5688468,-0.857076 -2.493099,0.01981 -4.011337,2.05339 -3.339455,4.472981 0.247063,0.88972 1.259696,1.8319479 2.313271,2.1524299 0.497616,0.151373 1.634125,0.147208 2.192911,-0.0081 z M 7.0315442,-1.217e-4 H 32.968653 c 3.895326,0 7.031252,3.1359263 7.031252,7.0312526 V 32.96895 c 0,3.895326 -3.135926,7.031253 -7.031252,7.031253 H 7.0315442 c -3.8953263,0 -7.03125261,-3.135927 -7.03125261,-7.031253 V 7.0311309 c 0,-3.8953263 3.13592631,-7.0312526 7.03125261,-7.0312526 z" /></svg>