<?xml version="1.0" encoding="UTF-8" standalone="no"?>
<svg id="svg8" xmlns:rdf="http://www.w3.org/1999/02/22-rdf-syntax-ns#" xmlns="http://www.w3.org/2000/svg" enable-background="new 0 0 1000 1000" xml:space="preserve" height="40" width="40" version="1.1" y="0px" x="0px" xmlns:cc="http://creativecommons.org/ns#" xmlns:dc="http://purl.org/dc/elements/1.1/" viewBox="0 0 40.000004 39.999996"><metadata id="metadata2"> Svg Vector Icons : http://www.onlinewebfonts.com/icon <rdf:RDF><cc:Work rdf:about=""><dc:format>image/svg+xml</dc:format><dc:type rdf:resource="http://purl.org/dc/dcmitype/StillImage"/><dc:title/></cc:Work></rdf:RDF></metadata><g id="g6" fill="#fff" transform="matrix(.040816 0 0 .040799 -.40816 -.40391)"><path id="path4" fill="#fff" d="m261.3 791c-3.4 3.8-7.7 3.2-12.8-1.9-5.5-4.7-6.4-8.7-2.6-12.1 3.4-3.8 7.7-3.2 12.8 1.9 5.1 4.7 6 8.7 2.6 12.1zm-26.8-38.9c3.8 5.1 3.8 9.1 0 12.1-3.4 2.6-7 1.1-10.9-4.5-3.8-5.5-3.8-9.4 0-11.5 3.9-2.8 7.5-1.6 10.9 3.9zm-38.9-38.3c-2.1 3-4.9 3.4-8.3 1.3-4.2-2.1-5.7-4.7-4.5-7.6 1.3-2.1 4-2.5 8.3-1.3 4.3 2.1 5.8 4.7 4.5 7.6zm19.8 21.7c-2.6 3-6 2.3-10.2-1.9-3.8-4.7-4.3-8.1-1.3-10.2 2.6-2.6 6-1.9 10.2 1.9 3.9 4.7 4.3 8.1 1.3 10.2zm82.3 71.5c-1.7 5.1-5.8 6.4-12.1 3.8-7.2-1.7-10-4.9-8.3-9.6s5.8-6.1 12.1-4.5c6.8 2.3 9.6 5.7 8.3 10.3zm40.2 3.2c0 4.7-3.4 7-10.2 7-7.2 0.8-10.9-1.5-10.9-7 0-4.7 3.4-7 10.2-7 7.3-0.9 10.9 1.5 10.9 7zm37-6.4c0.8 4.2-2.1 7.2-8.9 8.9s-10.6 0-11.5-5.1c-0.8-5.1 2.1-8.3 8.9-9.6 6.8-0.7 10.6 1.2 11.5 5.8zm615.1-609.9v612.5c0 50.6-18 93.9-53.9 129.8-35.9 36-79.2 53.9-129.9 53.9h-142.9c-6.8 0-12-0.2-15.6-0.7-3.6-0.4-7.8-1.5-12.5-3.2s-8.1-4.8-10.2-9.3-3.2-10.3-3.2-17.6v-152.3c0-41.3-11.1-71.5-33.2-90.6 24.3-2.6 46.1-6.4 65.4-11.5 19.4-5.1 39.3-13.4 60-24.9 20.6-11.5 37.9-25.6 51.7-42.4s25.1-39.1 33.8-67 13.1-59.9 13.1-96c0-51.5-16.8-95.3-50.4-131.4 15.7-38.7 14-82.1-5.1-130.1-11.9-3.8-29.2-1.5-51.7 7s-42.1 17.9-58.7 28.1l-24.3 15.3c-39.6-11.1-80.4-16.6-122.5-16.6s-82.9 5.5-122.5 16.6c-6.8-4.7-15.8-10.4-27.1-17.2s-29-15-53.3-24.6-42.5-12.5-54.9-8.6c-18.7 48.1-20.2 91.5-4.5 130.1-33.6 36.2-50.4 80-50.4 131.4 0 36.2 4.4 68.1 13.1 95.7 8.7 27.7 19.9 50 33.5 67s30.7 31.3 51.4 42.8c20.6 11.5 40.6 19.8 60 24.9s41.2 8.9 65.4 11.5c-17 15.3-27.4 37.2-31.3 65.7-8.9 4.2-18.5 7.4-28.7 9.6-10.2 2.1-22.3 3.2-36.4 3.2-14 0-28-4.6-41.8-13.7s-25.6-22.4-35.4-39.9c-8.1-13.6-18.4-24.7-31-33.2-12.5-8.5-23.1-13.6-31.6-15.3l-12.8-1.9c-8.9 0-15.1 1-18.5 2.9s-4.5 4.4-3.2 7.4 3.2 6 5.8 8.9c2.6 3 5.3 5.5 8.3 7.6l4.5 3.2c9.4 4.2 18.6 12.3 27.8 24.3 9.1 11.9 15.8 22.8 20.1 32.5l6.4 14.7c5.5 16.2 14.9 29.3 28.1 39.2 13.2 10 27.5 16.4 42.8 19.2s30.1 4.3 44.3 4.5c14.3 0.2 26.1-0.6 35.4-2.2l14.7-2.6c0 16.2 0.1 38.1 0.3 65.7s0.3 42.1 0.3 43.4c0 9.4-2.3 16.5-7 21.4s-9.4 7.6-14 8.3c-4.7 0.7-11.7 1-21.1 0.9h-142.9c-50.6 0-93.9-18-129.8-53.9s-53.9-79.6-53.9-130.3v-612.5c0-50.6 18-93.8 53.9-129.8s79.2-53.9 129.8-53.9h612.5c50.6 0 93.9 18 129.8 53.9 36 35.9 53.9 79.2 53.9 129.8z"/></g></svg>
